PathFileType	4	(X/Y/Z)	c:/Users/goper/Files/vsCode/490R/osim_files/A05/A05_Slow_02.trc
DataRate	CameraRate	NumFrames	NumMarkers	Units                	OrigDataRate	OrigDataStartFrame	OrigNumFrames
250.00	250.00	7	36	mm	250.0	2237	3578
                Frame#	Time	LPSIS			LASIS			LTH1			LTH2			LTH3			LTH4			LLFE			LMFE			LSH1			LSH2			LSH3			LSH4			LLMAL			LMMAL			LCAL			LMTP5			LTOE			LMTP1			RPSIS			RASIS			RTH1			RTH2			RTH3			RTH4			RLFE			RMFE			RSH1			RSH2			RSH3			RSH4			RLMAL			RMMAL			RCAL			RMTP1			RTOE			RMTP5		
		X1	Y1	Z1	X2	Y2	Z2	X3	Y3	Z3	X4	Y4	Z4	X5	Y5	Z5	X6	Y6	Z6	X7	Y7	Z7	X8	Y8	Z8	X9	Y9	Z9	X10	Y10	Z10	X11	Y11	Z11	X12	Y12	Z12	X13	Y13	Z13	X14	Y14	Z14	X15	Y15	Z15	X16	Y16	Z16	X17	Y17	Z17	X18	Y18	Z18	X19	Y19	Z19	X20	Y20	Z20	X21	Y21	Z21	X22	Y22	Z22	X23	Y23	Z23	X24	Y24	Z24	X25	Y25	Z25	X26	Y26	Z26	X27	Y27	Z27	X28	Y28	Z28	X29	Y29	Z29	X30	Y30	Z30	X31	Y31	Z31	X32	Y32	Z32	X33	Y33	Z33	X34	Y34	Z34	X35	Y35	Z35	X36	Y36	Z36

2237	8.94400	-1035.58582	1027.66504	275.50668	-1213.97144	990.27039	409.80603	-1081.63586	705.34656	450.94052	-1092.53210	662.85443	451.69556	-1138.08386	712.98853	474.56848	-1141.65869	669.39709	470.38193	-1149.30676	489.45361	451.00894	-1160.45923	485.04114	352.48059	-1056.16565	443.28604	449.19836	-1023.84827	412.26447	447.64883	-1095.53772	396.48038	443.34521	-1058.76855	371.50278	444.03613	-883.55786	237.72050	424.27197	-899.01276	236.21617	334.39548	-796.83160	251.85121	356.78253	-928.55029	105.98336	462.21353	-987.65631	84.31871	411.27570	-961.05676	104.25780	357.67236	-1053.47595	1028.82471	196.21912	-1247.58264	979.57758	116.68623	-1261.70435	607.53394	71.21185	-1275.48804	570.33636	85.18138	-1313.28101	627.43787	102.77528	-1318.44751	582.13153	115.60392	-1255.99536	528.19342	87.27745	-1264.13379	511.23648	230.43295	-1236.71606	265.21912	92.42435	-1236.18103	218.45258	102.95103	-1297.99292	261.99622	106.58818	-1287.17139	212.77710	112.02863	-1234.35510	111.18789	125.25716	-1277.51843	135.51018	213.20909	-1180.72131	69.21405	206.57532	-1394.54553	54.01877	200.10991	-1424.27747	64.35574	145.30753	-1355.36279	46.19007	85.02141
2238	8.94800	-1038.34814	1028.22131	274.65744	-1216.52771	991.11932	409.48819	-1086.14001	705.42804	450.59476	-1097.18323	663.18481	451.52802	-1142.17114	713.78326	474.48785	-1146.17932	670.22681	470.42706	-1155.56604	490.29584	451.64978	-1167.20288	485.68832	353.24832	-1062.08972	444.79959	449.60080	-1029.85364	413.37335	447.61447	-1101.88281	398.31009	444.08408	-1064.65430	372.58539	444.24146	-889.17517	239.29016	423.56201	-905.20923	237.67142	333.76224	-802.87347	253.63315	355.65808	-933.53467	107.45695	461.95847	-992.90216	85.55908	411.43585	-966.69348	105.59039	357.72873	-1056.38879	1029.39014	195.39418	-1250.52234	979.88879	116.35714	-1263.02844	607.53101	70.90102	-1276.59924	570.28699	84.80894	-1314.77478	627.10468	102.40034	-1319.73242	581.78613	115.11058	-1256.93152	528.29639	86.94540	-1265.51025	511.29254	230.09392	-1237.14246	265.36380	92.27444	-1236.50781	218.55585	102.86610	-1298.43091	261.91736	106.41685	-1287.59033	212.77277	111.90244	-1234.46313	111.26298	125.16634	-1277.61365	135.60204	213.14828	-1180.75293	69.30353	206.55016	-1394.56848	53.99124	200.04054	-1424.33972	64.32511	145.29216	-1355.35486	46.14481	84.96296
2239	8.95200	-1041.03735	1028.78882	273.83792	-1219.03552	991.88922	409.13196	-1090.60364	705.51703	450.26202	-1101.70886	663.55420	451.35150	-1146.28931	714.66217	474.44891	-1150.52795	671.12708	470.51233	-1161.61890	491.15790	452.28952	-1173.95898	486.40637	353.98364	-1068.19141	445.86761	449.82626	-1035.82300	414.56265	447.55054	-1107.84216	399.21155	444.70441	-1070.60339	373.65994	444.48230	-894.88568	240.73906	422.96490	-911.54950	239.08044	332.82596	-808.94342	255.26773	354.45282	-938.67419	108.90115	461.66360	-998.33118	86.75572	411.65771	-972.35016	106.67651	357.60727	-1059.21338	1029.94824	194.63489	-1253.43848	980.22693	115.99676	-1264.21057	607.57166	70.47026	-1277.67944	570.27313	84.44250	-1316.15027	627.06934	101.92135	-1320.91968	581.72858	114.58099	-1257.96375	528.35913	86.64742	-1266.78333	511.40073	229.73360	-1237.61121	265.47681	92.08122	-1236.90344	218.69693	102.72123	-1298.81030	261.82910	106.24125	-1287.92249	212.76340	111.73751	-1234.57056	111.37312	125.08442	-1277.69092	135.66374	213.01057	-1180.77039	69.45807	206.47537	-1394.58252	54.00045	199.98425	-1424.37830	64.32187	145.18312	-1355.39722	46.09711	84.93398
2240	8.95600	-1043.72766	1029.42004	273.05109	-1221.63501	992.70825	408.85443	-1095.02356	705.61450	449.94254	-1106.23181	663.90295	451.25049	-1150.07422	715.40100	474.44376	-1154.87085	671.94666	470.65903	-1167.66406	492.04196	452.95575	-1180.57520	487.12946	354.71600	-1074.27051	446.67035	449.64044	-1041.72180	415.62610	447.59402	-1113.59241	399.70007	444.86615	-1076.42529	374.65259	444.80060	-900.77277	242.12781	422.26236	-917.84747	240.21318	332.27417	-815.26880	256.61230	353.29276	-943.94733	110.09850	461.50214	-1003.88739	87.83348	411.89630	-978.39008	107.77721	357.72733	-1062.08789	1030.43445	193.90318	-1256.29724	980.47412	115.62119	-1265.45312	607.56360	70.12306	-1279.36768	570.56757	84.67459	-1317.50269	626.85602	101.41416	-1322.49731	583.03314	114.49049	-1258.95703	528.40253	86.32851	-1268.01440	511.44247	229.40082	-1237.96216	265.62372	91.92309	-1237.22034	218.78062	102.64397	-1299.19177	261.80655	105.99164	-1288.18335	212.73863	111.61069	-1234.71008	111.45682	125.00404	-1277.93506	135.74724	212.94061	-1180.80212	69.55827	206.44583	-1394.40906	53.92096	200.04134	-1424.42529	64.28735	145.19214	-1355.42371	46.07114	84.91930
2241	8.96000	-1046.41248	1029.97839	272.23444	-1224.19702	993.43542	408.52390	-1099.39612	705.72168	449.63666	-1110.83582	664.21344	451.17569	-1154.12952	716.23718	474.45462	-1159.21399	672.70282	470.82077	-1173.64221	492.93292	453.65033	-1187.25330	487.84293	355.51486	-1080.29492	447.44580	449.43219	-1047.62646	416.72015	447.61899	-1119.28394	400.17188	444.93045	-1082.40137	375.75308	445.03580	-906.50439	243.28613	421.77161	-924.15472	241.21982	331.65787	-821.66925	258.16046	352.15109	-949.38507	111.33690	461.29459	-1009.68604	88.91383	412.04297	-984.44415	108.80290	357.74564	-1064.89282	1031.03394	193.16100	-1259.10156	980.79376	115.20574	-1267.29980	607.52405	69.63577	-1279.78735	570.21582	83.68176	-1318.87219	626.71759	100.75795	-1323.08765	580.60162	114.15392	-1259.91248	528.49915	85.95269	-1269.22363	511.49249	229.05188	-1238.39355	265.69293	91.80646	-1237.60657	218.89639	102.50374	-1299.64307	261.86572	105.81391	-1288.43982	212.72775	111.47644	-1234.85254	111.53088	124.91619	-1278.07422	135.86565	212.84882	-1180.83557	69.73647	206.36018	-1394.45618	53.94495	199.98907	-1424.53308	64.29990	145.10274	-1355.42725	46.05296	84.83736
2242	8.96400	-1049.12427	1030.57373	271.49161	-1226.73071	994.15979	408.12274	-1103.71802	705.83942	449.34491	-1115.30725	664.57166	451.13745	-1158.09814	717.03412	474.48450	-1163.53833	673.58026	470.94714	-1179.63379	493.77490	454.33005	-1193.61462	488.60715	356.23309	-1086.24402	448.37921	449.51279	-1053.65186	417.69705	447.65579	-1125.27222	401.10699	445.34244	-1088.38171	376.67642	445.31793	-912.47729	244.30786	421.23090	-931.24225	241.91078	332.93536	-828.04218	259.17996	351.11252	-955.09222	112.34463	461.19604	-1015.72333	90.00863	412.22183	-990.58960	109.61767	357.68042	-1067.68933	1031.55151	192.41090	-1261.94409	981.06934	114.86629	-1267.85510	607.52533	69.24530	-1281.03223	570.17688	83.35689	-1320.15723	626.46973	100.08604	-1324.47534	581.43304	113.14328	-1260.99255	528.53967	85.64833	-1270.42542	511.59912	228.64006	-1238.90552	265.78757	91.69518	-1237.90552	219.04152	102.41809	-1300.18933	261.82516	105.70314	-1288.79614	212.72556	111.28203	-1235.02734	111.63091	124.83977	-1278.26404	135.96591	212.76996	-1180.90308	69.88715	206.34569	-1394.74146	54.08016	199.86964	-1424.60107	64.33010	145.08688	-1355.45898	46.03024	84.80482
2243	8.96800	-1052.34131	1031.31958	271.16406	-1228.99243	995.16913	407.11273	-1107.98572	705.96893	449.06757	-1119.78711	664.86688	451.10376	-1162.01318	717.74011	474.53549	-1167.87427	674.37756	471.16476	-1185.51184	494.67343	455.00571	-1200.12720	489.38306	357.02405	-1092.14124	449.44479	449.88458	-1059.59729	418.62146	447.74341	-1131.33618	402.34186	445.37329	-1094.18359	377.36606	445.04205	-918.56696	245.21523	420.70630	-937.75275	242.85706	332.24252	-834.80750	260.00421	350.10263	-960.88165	113.29852	460.98257	-1021.83337	90.82563	412.37439	-997.07874	110.47403	357.85645	-1070.53027	1032.04114	191.78139	-1264.57300	981.24481	114.41263	-1269.03088	607.54919	68.76984	-1282.02271	570.14764	82.93903	-1321.58801	626.37329	99.52801	-1325.50342	581.14191	112.56615	-1262.03259	528.62170	85.33498	-1271.60791	511.63004	228.27951	-1239.51489	265.85352	91.62026	-1238.31543	219.14021	102.32441	-1300.67896	261.75986	105.59577	-1289.21826	212.75087	111.15975	-1235.18005	111.72812	124.77192	-1278.39209	136.04443	212.69540	-1180.93250	70.02992	206.27390	-1394.80981	54.08736	199.81950	-1424.67358	64.29226	145.03676	-1355.44958	46.02999	84.76567
